<svg xmlns="http://www.w3.org/2000/svg" viewBox="0 0 90 59"><defs><style>.a{fill:#f5f5f5;}.b{opacity:0.1;}</style></defs><g transform="translate(-1463 -621)"><rect class="a" width="90" height="59" transform="translate(1463 621)"/><g class="b" transform="translate(1496 639)"><path d="M21,3H3A2.151,2.151,0,0,0,1,5V19a2.006,2.006,0,0,0,2,2H21a2.151,2.151,0,0,0,2-2V5A2.151,2.151,0,0,0,21,3Zm0,15.92a.6.6,0,0,1-.08.08H3V5.08L3.08,5H20.91a.6.6,0,0,1,.08.08V18.92ZM11,15.51,8.5,12.5,5,17H19l-4.5-6Z"/></g></g></svg>